<?xml version="1.0" encoding="UTF-8" standalone="no"?>
<svg width="123px" height="27px" viewBox="0 0 123 27" version="1.1" xmlns="http://www.w3.org/2000/svg" xmlns:xlink="http://www.w3.org/1999/xlink">
    <!-- Generator: Sketch 3.6.1 (26313) - http://www.bohemiancoding.com/sketch -->
    <title>logo</title>
    <desc>Created with Sketch.</desc>
    <defs></defs>
    <g id="Page-1" stroke="none" stroke-width="1" fill="none" fill-rule="evenodd">
        <g id="logo" fill="#000000">
            <g id="Page-1">
                <g id="Desktop-HD">
                    <g id="Imported-EPS">
                        <g id="Page-1">
                            <path d="M60.8636754,13.5853843 C60.8636754,21.1726306 54.7565336,26.9674254 45.5532948,26.9674254 C36.350056,26.9674254 30.2429142,21.1726306 30.2429142,13.5853843 C30.2429142,5.99813806 36.350056,0.164727612 45.5532948,0.164727612 C54.7565336,0.164727612 60.8636754,5.99813806 60.8636754,13.5853843 L60.8636754,13.5853843 L60.8636754,13.5853843 Z M36.9014291,13.5853843 C36.9014291,19.0375261 38.8522537,23.9935299 45.6803843,23.9935299 C52.3814254,23.9935299 54.2051604,19.0375261 54.2051604,13.5853843 C54.2051604,8.13324254 52.3814254,3.13862313 45.5532948,3.13862313 C38.8522537,3.13862313 36.9014291,8.13324254 36.9014291,13.5853843 L36.9014291,13.5853843 L36.9014291,13.5853843 Z" id="Fill-1"></path>
                            <path d="M122.926881,13.5853843 C122.926881,21.1726306 116.819739,26.9674254 107.6165,26.9674254 C98.4132612,26.9674254 92.3061194,21.1726306 92.3061194,13.5853843 C92.3061194,5.99813806 98.4132612,0.164727612 107.6165,0.164727612 C116.819739,0.164727612 122.926881,5.99813806 122.926881,13.5853843 L122.926881,13.5853843 L122.926881,13.5853843 Z M98.9641455,13.5853843 C98.9641455,19.0375261 100.915459,23.9935299 107.74359,23.9935299 C114.444631,23.9935299 116.267877,19.0375261 116.267877,13.5853843 C116.267877,8.13324254 114.444631,3.13862313 107.6165,3.13862313 C100.915459,3.13862313 98.9641455,8.13324254 98.9641455,13.5853843 L98.9641455,13.5853843 L98.9641455,13.5853843 Z" id="Fill-2"></path>
                            <path d="M18.0672463,22.0075112 L18.0672463,3.74572015 C23.3067575,3.74572015 25.9032948,5.5753209 25.9032948,9.61676866 L25.9032948,10.6114888 L29.3958134,10.6114888 L29.3958134,0.923843284 L0.131,0.923843284 L0.131,10.6114888 L3.62400746,10.6114888 L3.62400746,9.61676866 C3.62400746,5.5753209 6.22054478,3.74572015 11.4595672,3.74572015 L11.4595672,22.0075112 C11.4595672,22.9997873 10.9873806,23.3805672 9.52438433,23.3805672 L5.93703731,23.3805672 L5.93703731,26.2014664 L23.5902649,26.2014664 L23.5902649,23.3805672 L20.0024291,23.3805672 C18.5394328,23.3805672 18.0672463,22.9997873 18.0672463,22.0075112" id="Fill-4"></path>
                            <path d="M79.7526045,22.0075112 L79.7526045,3.74572015 C84.9921157,3.74572015 87.588653,5.5753209 87.588653,9.61676866 L87.588653,10.6114888 L91.0811716,10.6114888 L91.0811716,0.923843284 L61.8163582,0.923843284 L61.8163582,10.6114888 L65.3088769,10.6114888 L65.3088769,9.61676866 C65.3088769,5.5753209 67.905903,3.74572015 73.1454142,3.74572015 L73.1454142,22.0075112 C73.1454142,22.9997873 72.6727388,23.3805672 71.2102313,23.3805672 L67.6223955,23.3805672 L67.6223955,26.2014664 L85.2756231,26.2014664 L85.2756231,23.3805672 L81.6877873,23.3805672 C80.2252799,23.3805672 79.7526045,22.9997873 79.7526045,22.0075112" id="Fill-5"></path>
                        </g>
                    </g>
                </g>
            </g>
        </g>
    </g>
</svg>